<svg xmlns="http://www.w3.org/2000/svg" xmlns:xlink="http://www.w3.org/1999/xlink" width="500" zoomAndPan="magnify" viewBox="0 0 375 374.999991" height="500" preserveAspectRatio="xMidYMid meet" version="1.0"><path stroke-linecap="butt" transform="matrix(-0.75, 0, 0, -0.75, 369.11711, 56.249996)" fill="none" stroke-linejoin="miter" d="M -0.000103518 37.499998 L 205.260327 37.499998 " stroke="#e4e2dd" stroke-width="75" stroke-opacity="1" stroke-miterlimit="4"/><path stroke-linecap="butt" transform="matrix(0, -0.75, 0.75, 0, 318.746264, 153.941181)" fill="none" stroke-linejoin="miter" d="M -0.000300212 37.499776 L 205.26013 37.499776 " stroke="#e4e2dd" stroke-width="75" stroke-opacity="1" stroke-miterlimit="4"/><path stroke-linecap="butt" transform="matrix(0.75, 0, 0, 0.75, 0.0000045, 318.749979)" fill="none" stroke-linejoin="miter" d="M -0.000006 37.50003 L 205.260424 37.50003 " stroke="#e4e2dd" stroke-width="75" stroke-opacity="1" stroke-miterlimit="4"/><path stroke-linecap="butt" transform="matrix(0, 0.75, -0.75, 0, 56.253003, 213.320787)" fill="none" stroke-linejoin="miter" d="M -0.000632389 37.498798 L 205.259798 37.498798 " stroke="#e4e2dd" stroke-width="75" stroke-opacity="1" stroke-miterlimit="4"/><path stroke-linecap="butt" transform="matrix(0, 0.75, -0.75, 0, 56.246298, 0.0037207)" fill="none" stroke-linejoin="miter" d="M 0.000247396 37.500274 L 205.260678 37.500274 " stroke="#e4e2dd" stroke-width="75" stroke-opacity="1" stroke-miterlimit="4"/><path stroke-linecap="butt" transform="matrix(-0.75, 0, 0, -0.75, 153.937494, 56.249996)" fill="none" stroke-linejoin="miter" d="M -0.00000747808 37.499998 L 205.260423 37.499998 " stroke="#e4e2dd" stroke-width="75" stroke-opacity="1" stroke-miterlimit="4"/><path stroke-linecap="butt" transform="matrix(0, -0.75, 0.75, 0, 318.749955, 373.137398)" fill="none" stroke-linejoin="miter" d="M 0.00090553 37.500063 L 213.09467 37.500063 " stroke="#e4e2dd" stroke-width="75" stroke-opacity="1" stroke-miterlimit="4"/><path stroke-linecap="butt" transform="matrix(0.75, 0, 0, 0.75, 215.179634, 318.749979)" fill="none" stroke-linejoin="miter" d="M 0.0000708402 37.50003 L 213.093835 37.50003 " stroke="#e4e2dd" stroke-width="75" stroke-opacity="1" stroke-miterlimit="4"/></svg>