<svg width="235" height="73" viewBox="0 0 235 73" fill="none" xmlns="http://www.w3.org/2000/svg">
<g filter="url(#filter0_dd_54854_15322)">
<g clip-path="url(#clip0_54854_15322)">
<path d="M58.2941 11.375H39.8206" stroke="#6750A4" stroke-width="14"/>
<path d="M55.6245 26.4731V7.99971" stroke="#6750A4" stroke-width="14"/>
<path d="M14 49.625H32.4734" stroke="#6750A4" stroke-width="14"/>
<path d="M17.3755 33.5986V52.0721" stroke="#6750A4" stroke-width="14"/>
<path d="M17.3745 8.00049V26.4739" stroke="#6750A4" stroke-width="14"/>
<path d="M32.4725 11.375H13.9991" stroke="#6750A4" stroke-width="14"/>
<path d="M55.625 52.7764V33.5979" stroke="#6750A4" stroke-width="14"/>
<path d="M39.8216 49.625H59" stroke="#6750A4" stroke-width="14"/>
</g>
<path d="M74.72 49C73.28 49 72.104 48.796 71.192 48.388C70.304 47.98 69.596 47.452 69.068 46.804C68.564 46.132 68.216 45.388 68.024 44.572C67.832 43.756 67.736 42.952 67.736 42.16L67.7 24.52C67.7 24.016 67.976 23.764 68.528 23.764H73.676C74.084 23.764 74.324 23.824 74.396 23.944C74.492 24.04 74.54 24.232 74.54 24.52V41.26C74.54 41.716 74.588 42.076 74.684 42.34C74.804 42.604 74.96 42.808 75.152 42.952C75.344 43.072 75.572 43.156 75.836 43.204C76.1 43.228 76.388 43.24 76.7 43.24H85.232C85.52 43.24 85.712 43.288 85.808 43.384C85.928 43.456 85.988 43.696 85.988 44.104V48.172C85.988 48.724 85.736 49 85.232 49H74.72ZM107.982 48.172C107.982 48.724 107.754 49 107.298 49H96.1738C94.7338 49 93.5578 48.796 92.6458 48.388C91.7578 47.98 91.0498 47.452 90.5218 46.804C90.0178 46.132 89.6698 45.388 89.4778 44.572C89.2858 43.756 89.1898 42.952 89.1898 42.16V30.64C89.1898 29.776 89.3098 28.936 89.5498 28.12C89.7898 27.28 90.1738 26.548 90.7018 25.924C91.2538 25.276 91.9738 24.76 92.8618 24.376C93.7498 23.992 94.8298 23.8 96.1018 23.8H106.722C107.01 23.8 107.19 23.848 107.262 23.944C107.358 24.016 107.406 24.256 107.406 24.664V28.732C107.406 29.044 107.358 29.26 107.262 29.38C107.166 29.476 106.986 29.524 106.722 29.524H98.1538C97.6738 29.524 97.2898 29.596 97.0018 29.74C96.7138 29.86 96.4978 30.016 96.3538 30.208C96.2098 30.4 96.1138 30.616 96.0658 30.856C96.0178 31.096 95.9938 31.336 95.9938 31.576V33.088H105.642C105.93 33.088 106.11 33.136 106.182 33.232C106.278 33.328 106.326 33.58 106.326 33.988V37.732C106.326 38.284 106.098 38.56 105.642 38.56H95.9938V41.26C95.9938 41.716 96.0418 42.076 96.1378 42.34C96.2578 42.604 96.4138 42.808 96.6058 42.952C96.7978 43.072 97.0258 43.156 97.2898 43.204C97.5538 43.228 97.8418 43.24 98.1538 43.24H107.298C107.586 43.24 107.766 43.288 107.838 43.384C107.934 43.456 107.982 43.696 107.982 44.104V48.172ZM123.678 43.312C124.23 43.312 124.746 43.288 125.226 43.24C125.706 43.168 126.198 43.06 126.702 42.916L126.738 39.352C126.594 39.352 126.414 39.364 126.198 39.388C126.006 39.388 125.838 39.4 125.694 39.424C125.19 39.472 124.698 39.556 124.218 39.676C123.738 39.796 123.282 39.94 122.85 40.108C122.466 40.252 122.202 40.312 122.058 40.288C121.938 40.264 121.818 40.096 121.698 39.784L120.654 36.04C120.606 35.848 120.582 35.68 120.582 35.536C120.582 35.368 120.738 35.224 121.05 35.104C121.89 34.792 122.862 34.516 123.966 34.276C125.094 34.012 126.234 33.88 127.386 33.88C128.01 33.88 128.55 33.904 129.006 33.952C129.486 34 129.93 34.084 130.338 34.204C131.394 34.468 132.15 34.96 132.606 35.68C133.062 36.4 133.29 37.444 133.29 38.812V45.328C133.29 45.736 133.23 46.132 133.11 46.516C133.014 46.876 132.714 47.2 132.21 47.488C131.418 47.92 130.578 48.268 129.69 48.532C128.802 48.796 127.926 48.988 127.062 49.108C126.222 49.228 125.442 49.3 124.722 49.324C124.026 49.372 123.462 49.396 123.03 49.396C120.894 49.396 119.082 49.072 117.594 48.424C116.13 47.752 114.93 46.84 113.994 45.688C113.082 44.536 112.41 43.168 111.978 41.584C111.57 40 111.366 38.272 111.366 36.4C111.366 34.456 111.618 32.692 112.122 31.108C112.65 29.524 113.418 28.168 114.426 27.04C115.434 25.888 116.694 25 118.206 24.376C119.718 23.752 121.47 23.44 123.462 23.44C124.854 23.44 126.162 23.56 127.386 23.8C128.634 24.016 129.786 24.424 130.842 25.024C131.25 25.24 131.454 25.432 131.454 25.6C131.478 25.768 131.382 26.092 131.166 26.572L129.906 29.524C129.738 29.98 129.57 30.256 129.402 30.352C129.258 30.424 128.97 30.388 128.538 30.244C128.058 30.1 127.626 29.98 127.242 29.884C126.858 29.764 126.474 29.668 126.09 29.596C125.73 29.524 125.358 29.476 124.974 29.452C124.614 29.428 124.218 29.416 123.786 29.416C122.106 29.416 120.81 30.016 119.898 31.216C119.01 32.392 118.566 34.12 118.566 36.4C118.566 38.656 118.95 40.372 119.718 41.548C120.51 42.724 121.83 43.312 123.678 43.312ZM160.144 36.364C160.144 38.38 159.928 40.192 159.496 41.8C159.064 43.408 158.38 44.776 157.444 45.904C156.532 47.032 155.344 47.896 153.88 48.496C152.416 49.096 150.664 49.396 148.624 49.396C146.68 49.396 144.988 49.108 143.548 48.532C142.132 47.932 140.968 47.08 140.056 45.976C139.144 44.848 138.46 43.48 138.004 41.872C137.572 40.264 137.356 38.452 137.356 36.436C137.356 34.468 137.596 32.68 138.076 31.072C138.58 29.464 139.3 28.096 140.236 26.968C141.196 25.816 142.384 24.94 143.8 24.34C145.216 23.716 146.86 23.404 148.732 23.404C150.676 23.404 152.356 23.716 153.772 24.34C155.212 24.94 156.4 25.804 157.336 26.932C158.296 28.06 159.004 29.428 159.46 31.036C159.916 32.62 160.144 34.396 160.144 36.364ZM152.98 36.4C152.956 35.464 152.872 34.576 152.728 33.736C152.608 32.872 152.392 32.128 152.08 31.504C151.768 30.88 151.336 30.388 150.784 30.028C150.232 29.644 149.536 29.452 148.696 29.452C148 29.452 147.388 29.632 146.86 29.992C146.332 30.352 145.9 30.844 145.564 31.468C145.228 32.068 144.976 32.776 144.808 33.592C144.64 34.408 144.556 35.26 144.556 36.148C144.556 37.252 144.628 38.248 144.772 39.136C144.916 40.024 145.156 40.78 145.492 41.404C145.828 42.004 146.272 42.472 146.824 42.808C147.376 43.144 148.06 43.312 148.876 43.312C149.668 43.312 150.328 43.132 150.856 42.772C151.384 42.388 151.804 41.884 152.116 41.26C152.428 40.612 152.644 39.868 152.764 39.028C152.908 38.188 152.98 37.312 152.98 36.4ZM186.256 45.508C186.256 46.276 186.088 46.972 185.752 47.596C185.44 48.196 184.816 48.628 183.88 48.892C183.4 49.036 182.824 49.144 182.152 49.216C181.48 49.288 180.82 49.336 180.172 49.36C179.524 49.408 178.912 49.432 178.336 49.432C177.784 49.456 177.376 49.468 177.112 49.468C174.976 49.468 173.14 49.312 171.604 49C170.092 48.664 168.844 48.088 167.86 47.272C166.876 46.456 166.144 45.376 165.664 44.032C165.208 42.664 164.98 40.948 164.98 38.884V24.556C164.98 24.052 165.256 23.8 165.808 23.8H170.92C171.328 23.8 171.568 23.86 171.64 23.98C171.736 24.076 171.784 24.268 171.784 24.556V39.532C171.784 40.948 172.12 41.968 172.792 42.592C173.464 43.216 174.628 43.528 176.284 43.528C176.404 43.528 176.608 43.528 176.896 43.528C177.184 43.528 177.484 43.516 177.796 43.492C178.132 43.468 178.456 43.456 178.768 43.456C179.08 43.432 179.332 43.396 179.524 43.348V24.556C179.524 24.052 179.8 23.8 180.352 23.8H185.428C185.836 23.8 186.076 23.86 186.148 23.98C186.244 24.076 186.292 24.268 186.292 24.556L186.256 45.508ZM191.416 31.216C191.416 30.184 191.584 29.2 191.92 28.264C192.28 27.304 192.82 26.464 193.54 25.744C194.284 25.024 195.232 24.46 196.384 24.052C197.536 23.62 198.904 23.404 200.488 23.404C201.952 23.404 203.428 23.548 204.916 23.836C206.428 24.1 207.7 24.508 208.732 25.06C209.14 25.252 209.356 25.432 209.38 25.6C209.404 25.768 209.32 26.104 209.128 26.608L208.156 29.596C207.988 30.052 207.82 30.316 207.652 30.388C207.508 30.46 207.232 30.436 206.824 30.316C205.792 30.028 204.724 29.812 203.62 29.668C202.54 29.5 201.532 29.416 200.596 29.416C199.756 29.416 199.192 29.536 198.904 29.776C198.64 30.016 198.508 30.304 198.508 30.64C198.508 30.784 198.532 30.94 198.58 31.108C198.652 31.252 198.772 31.42 198.94 31.612C199.132 31.78 199.396 31.96 199.732 32.152C200.092 32.344 200.572 32.548 201.172 32.764C202.612 33.316 203.908 33.868 205.06 34.42C206.212 34.948 207.184 35.548 207.976 36.22C208.768 36.892 209.38 37.672 209.812 38.56C210.244 39.424 210.46 40.444 210.46 41.62C210.46 44.212 209.608 46.156 207.904 47.452C206.2 48.748 203.788 49.396 200.668 49.396C199.036 49.396 197.32 49.228 195.52 48.892C193.744 48.556 192.136 47.944 190.696 47.056C190.456 46.912 190.312 46.756 190.264 46.588C190.24 46.396 190.3 46.12 190.444 45.76L191.848 42.34C192.016 41.932 192.184 41.704 192.352 41.656C192.52 41.608 192.784 41.656 193.144 41.8C193.504 41.944 193.96 42.1 194.512 42.268C195.088 42.436 195.7 42.592 196.348 42.736C196.996 42.88 197.668 43 198.364 43.096C199.084 43.192 199.78 43.24 200.452 43.24C201.028 43.24 201.484 43.192 201.82 43.096C202.156 42.976 202.42 42.844 202.612 42.7C202.804 42.532 202.924 42.352 202.972 42.16C203.044 41.968 203.08 41.8 203.08 41.656C203.08 41.464 203.056 41.272 203.008 41.08C202.96 40.888 202.84 40.708 202.648 40.54C202.48 40.348 202.204 40.156 201.82 39.964C201.436 39.748 200.92 39.52 200.272 39.28C199.024 38.824 197.86 38.356 196.78 37.876C195.7 37.372 194.764 36.808 193.972 36.184C193.18 35.56 192.556 34.852 192.1 34.06C191.644 33.244 191.416 32.296 191.416 31.216ZM220.95 45.904C220.95 46.888 220.59 47.716 219.87 48.388C219.174 49.06 218.31 49.396 217.278 49.396C216.774 49.396 216.294 49.3 215.838 49.108C215.406 48.94 215.022 48.7 214.686 48.388C214.35 48.076 214.086 47.716 213.894 47.308C213.702 46.876 213.606 46.408 213.606 45.904C213.606 45.424 213.702 44.968 213.894 44.536C214.086 44.104 214.35 43.732 214.686 43.42C215.022 43.108 215.406 42.868 215.838 42.7C216.294 42.508 216.774 42.412 217.278 42.412C218.31 42.412 219.174 42.748 219.87 43.42C220.59 44.068 220.95 44.896 220.95 45.904Z" fill="white"/>
</g>
<defs>
<filter id="filter0_dd_54854_15322" x="0" y="0" width="237" height="73" filterUnits="userSpaceOnUse" color-interpolation-filters="sRGB">
<feFlood flood-opacity="0" result="BackgroundImageFix"/>
<feColorMatrix in="SourceAlpha" type="matrix" values="0 0 0 0 0 0 0 0 0 0 0 0 0 0 0 0 0 0 127 0" result="hardAlpha"/>
<feOffset dy="2"/>
<feGaussianBlur stdDeviation="1.5"/>
<feColorMatrix type="matrix" values="0 0 0 0 0 0 0 0 0 0 0 0 0 0 0 0 0 0 0.3 0"/>
<feBlend mode="normal" in2="BackgroundImageFix" result="effect1_dropShadow_54854_15322"/>
<feColorMatrix in="SourceAlpha" type="matrix" values="0 0 0 0 0 0 0 0 0 0 0 0 0 0 0 0 0 0 127 0" result="hardAlpha"/>
<feMorphology radius="4" operator="dilate" in="SourceAlpha" result="effect2_dropShadow_54854_15322"/>
<feOffset dy="6"/>
<feGaussianBlur stdDeviation="5"/>
<feColorMatrix type="matrix" values="0 0 0 0 0 0 0 0 0 0 0 0 0 0 0 0 0 0 0.15 0"/>
<feBlend mode="normal" in2="effect1_dropShadow_54854_15322" result="effect2_dropShadow_54854_15322"/>
<feBlend mode="normal" in="SourceGraphic" in2="effect2_dropShadow_54854_15322" result="shape"/>
</filter>
<clipPath id="clip0_54854_15322">
<rect width="45" height="45" fill="white" transform="translate(14 8)"/>
</clipPath>
</defs>
</svg>
