<svg width="210" height="48" viewBox="0 0 210 48" fill="none" xmlns="http://www.w3.org/2000/svg">
<g filter="url(#filter0_dd_56717_15942)">
<g clip-path="url(#clip0_56717_15942)">
<path d="M43.3725 6H26.9517" stroke="white" stroke-width="14"/>
<path d="M40.9996 19.4204V2.99958" stroke="white" stroke-width="14"/>
<path d="M4 40H20.4208" stroke="white" stroke-width="14"/>
<path d="M7.00041 25.7544V42.1752" stroke="white" stroke-width="14"/>
<path d="M6.99959 3.00049V19.4213" stroke="white" stroke-width="14"/>
<path d="M20.42 6H3.99917" stroke="white" stroke-width="14"/>
<path d="M41 42.8013V25.7538" stroke="white" stroke-width="14"/>
<path d="M26.9525 40H44" stroke="white" stroke-width="14"/>
</g>
<path d="M59.72 39C58.28 39 57.104 38.796 56.192 38.388C55.304 37.98 54.596 37.452 54.068 36.804C53.564 36.132 53.216 35.388 53.024 34.572C52.832 33.756 52.736 32.952 52.736 32.16L52.7 14.52C52.7 14.016 52.976 13.764 53.528 13.764H58.676C59.084 13.764 59.324 13.824 59.396 13.944C59.492 14.04 59.54 14.232 59.54 14.52V31.26C59.54 31.716 59.588 32.076 59.684 32.34C59.804 32.604 59.96 32.808 60.152 32.952C60.344 33.072 60.572 33.156 60.836 33.204C61.1 33.228 61.388 33.24 61.7 33.24H70.232C70.52 33.24 70.712 33.288 70.808 33.384C70.928 33.456 70.988 33.696 70.988 34.104V38.172C70.988 38.724 70.736 39 70.232 39H59.72ZM92.9818 38.172C92.9818 38.724 92.7538 39 92.2978 39H81.1738C79.7338 39 78.5578 38.796 77.6458 38.388C76.7578 37.98 76.0498 37.452 75.5218 36.804C75.0178 36.132 74.6698 35.388 74.4778 34.572C74.2858 33.756 74.1898 32.952 74.1898 32.16V20.64C74.1898 19.776 74.3098 18.936 74.5498 18.12C74.7898 17.28 75.1738 16.548 75.7018 15.924C76.2538 15.276 76.9738 14.76 77.8618 14.376C78.7498 13.992 79.8298 13.8 81.1018 13.8H91.7218C92.0098 13.8 92.1898 13.848 92.2618 13.944C92.3578 14.016 92.4058 14.256 92.4058 14.664V18.732C92.4058 19.044 92.3578 19.26 92.2618 19.38C92.1658 19.476 91.9858 19.524 91.7218 19.524H83.1538C82.6738 19.524 82.2898 19.596 82.0018 19.74C81.7138 19.86 81.4978 20.016 81.3538 20.208C81.2098 20.4 81.1138 20.616 81.0658 20.856C81.0178 21.096 80.9938 21.336 80.9938 21.576V23.088H90.6418C90.9298 23.088 91.1098 23.136 91.1818 23.232C91.2778 23.328 91.3258 23.58 91.3258 23.988V27.732C91.3258 28.284 91.0978 28.56 90.6418 28.56H80.9938V31.26C80.9938 31.716 81.0418 32.076 81.1378 32.34C81.2578 32.604 81.4138 32.808 81.6058 32.952C81.7978 33.072 82.0258 33.156 82.2898 33.204C82.5538 33.228 82.8418 33.24 83.1538 33.24H92.2978C92.5858 33.24 92.7658 33.288 92.8378 33.384C92.9338 33.456 92.9818 33.696 92.9818 34.104V38.172ZM108.678 33.312C109.23 33.312 109.746 33.288 110.226 33.24C110.706 33.168 111.198 33.06 111.702 32.916L111.738 29.352C111.594 29.352 111.414 29.364 111.198 29.388C111.006 29.388 110.838 29.4 110.694 29.424C110.19 29.472 109.698 29.556 109.218 29.676C108.738 29.796 108.282 29.94 107.85 30.108C107.466 30.252 107.202 30.312 107.058 30.288C106.938 30.264 106.818 30.096 106.698 29.784L105.654 26.04C105.606 25.848 105.582 25.68 105.582 25.536C105.582 25.368 105.738 25.224 106.05 25.104C106.89 24.792 107.862 24.516 108.966 24.276C110.094 24.012 111.234 23.88 112.386 23.88C113.01 23.88 113.55 23.904 114.006 23.952C114.486 24 114.93 24.084 115.338 24.204C116.394 24.468 117.15 24.96 117.606 25.68C118.062 26.4 118.29 27.444 118.29 28.812V35.328C118.29 35.736 118.23 36.132 118.11 36.516C118.014 36.876 117.714 37.2 117.21 37.488C116.418 37.92 115.578 38.268 114.69 38.532C113.802 38.796 112.926 38.988 112.062 39.108C111.222 39.228 110.442 39.3 109.722 39.324C109.026 39.372 108.462 39.396 108.03 39.396C105.894 39.396 104.082 39.072 102.594 38.424C101.13 37.752 99.9299 36.84 98.9939 35.688C98.0819 34.536 97.4099 33.168 96.9779 31.584C96.5699 30 96.3659 28.272 96.3659 26.4C96.3659 24.456 96.6179 22.692 97.1219 21.108C97.6499 19.524 98.4179 18.168 99.4259 17.04C100.434 15.888 101.694 15 103.206 14.376C104.718 13.752 106.47 13.44 108.462 13.44C109.854 13.44 111.162 13.56 112.386 13.8C113.634 14.016 114.786 14.424 115.842 15.024C116.25 15.24 116.454 15.432 116.454 15.6C116.478 15.768 116.382 16.092 116.166 16.572L114.906 19.524C114.738 19.98 114.57 20.256 114.402 20.352C114.258 20.424 113.97 20.388 113.538 20.244C113.058 20.1 112.626 19.98 112.242 19.884C111.858 19.764 111.474 19.668 111.09 19.596C110.73 19.524 110.358 19.476 109.974 19.452C109.614 19.428 109.218 19.416 108.786 19.416C107.106 19.416 105.81 20.016 104.898 21.216C104.01 22.392 103.566 24.12 103.566 26.4C103.566 28.656 103.95 30.372 104.718 31.548C105.51 32.724 106.83 33.312 108.678 33.312ZM145.144 26.364C145.144 28.38 144.928 30.192 144.496 31.8C144.064 33.408 143.38 34.776 142.444 35.904C141.532 37.032 140.344 37.896 138.88 38.496C137.416 39.096 135.664 39.396 133.624 39.396C131.68 39.396 129.988 39.108 128.548 38.532C127.132 37.932 125.968 37.08 125.056 35.976C124.144 34.848 123.46 33.48 123.004 31.872C122.572 30.264 122.356 28.452 122.356 26.436C122.356 24.468 122.596 22.68 123.076 21.072C123.58 19.464 124.3 18.096 125.236 16.968C126.196 15.816 127.384 14.94 128.8 14.34C130.216 13.716 131.86 13.404 133.732 13.404C135.676 13.404 137.356 13.716 138.772 14.34C140.212 14.94 141.4 15.804 142.336 16.932C143.296 18.06 144.004 19.428 144.46 21.036C144.916 22.62 145.144 24.396 145.144 26.364ZM137.98 26.4C137.956 25.464 137.872 24.576 137.728 23.736C137.608 22.872 137.392 22.128 137.08 21.504C136.768 20.88 136.336 20.388 135.784 20.028C135.232 19.644 134.536 19.452 133.696 19.452C133 19.452 132.388 19.632 131.86 19.992C131.332 20.352 130.9 20.844 130.564 21.468C130.228 22.068 129.976 22.776 129.808 23.592C129.64 24.408 129.556 25.26 129.556 26.148C129.556 27.252 129.628 28.248 129.772 29.136C129.916 30.024 130.156 30.78 130.492 31.404C130.828 32.004 131.272 32.472 131.824 32.808C132.376 33.144 133.06 33.312 133.876 33.312C134.668 33.312 135.328 33.132 135.856 32.772C136.384 32.388 136.804 31.884 137.116 31.26C137.428 30.612 137.644 29.868 137.764 29.028C137.908 28.188 137.98 27.312 137.98 26.4ZM171.256 35.508C171.256 36.276 171.088 36.972 170.752 37.596C170.44 38.196 169.816 38.628 168.88 38.892C168.4 39.036 167.824 39.144 167.152 39.216C166.48 39.288 165.82 39.336 165.172 39.36C164.524 39.408 163.912 39.432 163.336 39.432C162.784 39.456 162.376 39.468 162.112 39.468C159.976 39.468 158.14 39.312 156.604 39C155.092 38.664 153.844 38.088 152.86 37.272C151.876 36.456 151.144 35.376 150.664 34.032C150.208 32.664 149.98 30.948 149.98 28.884V14.556C149.98 14.052 150.256 13.8 150.808 13.8H155.92C156.328 13.8 156.568 13.86 156.64 13.98C156.736 14.076 156.784 14.268 156.784 14.556V29.532C156.784 30.948 157.12 31.968 157.792 32.592C158.464 33.216 159.628 33.528 161.284 33.528C161.404 33.528 161.608 33.528 161.896 33.528C162.184 33.528 162.484 33.516 162.796 33.492C163.132 33.468 163.456 33.456 163.768 33.456C164.08 33.432 164.332 33.396 164.524 33.348V14.556C164.524 14.052 164.8 13.8 165.352 13.8H170.428C170.836 13.8 171.076 13.86 171.148 13.98C171.244 14.076 171.292 14.268 171.292 14.556L171.256 35.508ZM176.416 21.216C176.416 20.184 176.584 19.2 176.92 18.264C177.28 17.304 177.82 16.464 178.54 15.744C179.284 15.024 180.232 14.46 181.384 14.052C182.536 13.62 183.904 13.404 185.488 13.404C186.952 13.404 188.428 13.548 189.916 13.836C191.428 14.1 192.7 14.508 193.732 15.06C194.14 15.252 194.356 15.432 194.38 15.6C194.404 15.768 194.32 16.104 194.128 16.608L193.156 19.596C192.988 20.052 192.82 20.316 192.652 20.388C192.508 20.46 192.232 20.436 191.824 20.316C190.792 20.028 189.724 19.812 188.62 19.668C187.54 19.5 186.532 19.416 185.596 19.416C184.756 19.416 184.192 19.536 183.904 19.776C183.64 20.016 183.508 20.304 183.508 20.64C183.508 20.784 183.532 20.94 183.58 21.108C183.652 21.252 183.772 21.42 183.94 21.612C184.132 21.78 184.396 21.96 184.732 22.152C185.092 22.344 185.572 22.548 186.172 22.764C187.612 23.316 188.908 23.868 190.06 24.42C191.212 24.948 192.184 25.548 192.976 26.22C193.768 26.892 194.38 27.672 194.812 28.56C195.244 29.424 195.46 30.444 195.46 31.62C195.46 34.212 194.608 36.156 192.904 37.452C191.2 38.748 188.788 39.396 185.668 39.396C184.036 39.396 182.32 39.228 180.52 38.892C178.744 38.556 177.136 37.944 175.696 37.056C175.456 36.912 175.312 36.756 175.264 36.588C175.24 36.396 175.3 36.12 175.444 35.76L176.848 32.34C177.016 31.932 177.184 31.704 177.352 31.656C177.52 31.608 177.784 31.656 178.144 31.8C178.504 31.944 178.96 32.1 179.512 32.268C180.088 32.436 180.7 32.592 181.348 32.736C181.996 32.88 182.668 33 183.364 33.096C184.084 33.192 184.78 33.24 185.452 33.24C186.028 33.24 186.484 33.192 186.82 33.096C187.156 32.976 187.42 32.844 187.612 32.7C187.804 32.532 187.924 32.352 187.972 32.16C188.044 31.968 188.08 31.8 188.08 31.656C188.08 31.464 188.056 31.272 188.008 31.08C187.96 30.888 187.84 30.708 187.648 30.54C187.48 30.348 187.204 30.156 186.82 29.964C186.436 29.748 185.92 29.52 185.272 29.28C184.024 28.824 182.86 28.356 181.78 27.876C180.7 27.372 179.764 26.808 178.972 26.184C178.18 25.56 177.556 24.852 177.1 24.06C176.644 23.244 176.416 22.296 176.416 21.216ZM205.95 35.904C205.95 36.888 205.59 37.716 204.87 38.388C204.174 39.06 203.31 39.396 202.278 39.396C201.774 39.396 201.294 39.3 200.838 39.108C200.406 38.94 200.022 38.7 199.686 38.388C199.35 38.076 199.086 37.716 198.894 37.308C198.702 36.876 198.606 36.408 198.606 35.904C198.606 35.424 198.702 34.968 198.894 34.536C199.086 34.104 199.35 33.732 199.686 33.42C200.022 33.108 200.406 32.868 200.838 32.7C201.294 32.508 201.774 32.412 202.278 32.412C203.31 32.412 204.174 32.748 204.87 33.42C205.59 34.068 205.95 34.896 205.95 35.904Z" fill="white"/>
</g>
<defs>
<filter id="filter0_dd_56717_15942" x="0" y="0" width="212" height="48" filterUnits="userSpaceOnUse" color-interpolation-filters="sRGB">
<feFlood flood-opacity="0" result="BackgroundImageFix"/>
<feColorMatrix in="SourceAlpha" type="matrix" values="0 0 0 0 0 0 0 0 0 0 0 0 0 0 0 0 0 0 127 0" result="hardAlpha"/>
<feMorphology radius="1" operator="dilate" in="SourceAlpha" result="effect1_dropShadow_56717_15942"/>
<feOffset dy="1"/>
<feGaussianBlur stdDeviation="1.5"/>
<feColorMatrix type="matrix" values="0 0 0 0 0 0 0 0 0 0 0 0 0 0 0 0 0 0 0.15 0"/>
<feBlend mode="normal" in2="BackgroundImageFix" result="effect1_dropShadow_56717_15942"/>
<feColorMatrix in="SourceAlpha" type="matrix" values="0 0 0 0 0 0 0 0 0 0 0 0 0 0 0 0 0 0 127 0" result="hardAlpha"/>
<feOffset dy="1"/>
<feGaussianBlur stdDeviation="1"/>
<feColorMatrix type="matrix" values="0 0 0 0 0 0 0 0 0 0 0 0 0 0 0 0 0 0 0.3 0"/>
<feBlend mode="normal" in2="effect1_dropShadow_56717_15942" result="effect2_dropShadow_56717_15942"/>
<feBlend mode="normal" in="SourceGraphic" in2="effect2_dropShadow_56717_15942" result="shape"/>
</filter>
<clipPath id="clip0_56717_15942">
<rect width="40" height="40" fill="white" transform="translate(4 3)"/>
</clipPath>
</defs>
</svg>
